<?xml version="1.0" standalone="no"?>
<!DOCTYPE svg PUBLIC "-//W3C//DTD SVG 20010904//EN"
 "http://www.w3.org/TR/2001/REC-SVG-20010904/DTD/svg10.dtd">
<svg version="1.0" xmlns="http://www.w3.org/2000/svg"
 width="903.000000pt" height="603.000000pt" viewBox="0 0 903.000000 603.000000"
 preserveAspectRatio="xMidYMid meet">
<metadata>
Created by potrace 1.16, written by Peter Selinger 2001-2019
</metadata>
<g transform="translate(0.000000,603.000000) scale(0.100000,-0.100000)"
fill="#000000" stroke="none">
<path d="M20 5495 l0 -524 78 -77 c42 -43 122 -106 177 -142 55 -35 130 -84
167 -109 37 -25 100 -58 140 -75 40 -17 117 -57 170 -90 95 -58 97 -60 121
-123 40 -102 128 -225 334 -468 58 -68 156 -191 191 -241 33 -47 62 -138 62
-195 0 -42 5 -56 31 -86 27 -30 30 -40 24 -71 -3 -20 -2 -48 3 -63 6 -14 16
-69 23 -121 9 -59 20 -101 30 -111 9 -9 19 -36 22 -60 8 -62 88 -277 123 -333
16 -26 48 -73 70 -104 23 -31 60 -95 83 -142 23 -47 58 -110 79 -141 111 -166
137 -210 187 -312 29 -62 66 -126 82 -143 43 -48 258 -205 347 -253 94 -51
236 -151 285 -200 20 -20 70 -63 111 -96 41 -33 138 -123 216 -200 78 -77 154
-151 170 -164 45 -37 103 -59 184 -71 41 -6 102 -15 135 -20 37 -6 98 -28 160
-59 55 -27 130 -59 167 -71 39 -12 88 -38 117 -61 180 -143 332 -222 411 -213
79 9 126 99 117 222 -10 138 -68 273 -171 397 -23 28 -54 71 -69 96 -15 26
-72 88 -127 139 -150 139 -174 190 -99 210 47 13 44 15 109 -92 54 -90 106
-132 252 -206 118 -59 129 -63 218 -70 l94 -7 21 -53 c27 -72 74 -125 161
-182 148 -97 288 -104 463 -24 41 19 76 34 78 34 2 0 11 -17 20 -37 64 -154
165 -295 252 -354 59 -38 117 -54 148 -40 13 6 31 11 40 11 30 0 99 68 133
132 18 34 41 69 51 76 27 19 84 118 122 212 19 47 51 111 71 143 49 76 69 76
121 2 45 -67 132 -148 189 -178 85 -44 220 -20 247 45 12 29 7 141 -16 338 -3
25 -10 104 -16 175 -11 138 -43 314 -64 355 -8 14 -32 41 -54 60 -23 19 -41
40 -41 47 0 7 -4 13 -9 13 -4 0 -24 13 -42 30 l-34 30 -15 -22 c-8 -12 -20
-34 -27 -50 -11 -26 -10 -28 10 -28 12 -1 35 -11 51 -24 22 -18 27 -30 23 -47
-4 -13 -1 -30 7 -39 7 -8 16 -32 19 -53 5 -32 3 -37 -15 -37 -45 0 -84 30
-111 85 -30 61 -33 81 -15 87 8 3 7 11 -4 27 -11 15 -15 35 -11 57 4 26 2 35
-11 40 -28 11 -39 53 -21 80 29 44 23 60 -74 187 -24 31 -47 57 -52 57 -18 0
-49 66 -49 104 l0 38 36 -6 c34 -7 35 -6 32 21 -3 28 -22 35 -58 19 -11 -5
-19 7 -32 51 -23 78 -70 146 -132 192 -28 21 -88 79 -133 128 -73 80 -89 93
-145 112 -110 38 -181 79 -272 156 -49 42 -126 101 -170 132 -45 31 -110 80
-146 108 -36 29 -92 69 -125 90 -33 21 -86 62 -118 91 -32 30 -71 61 -86 68
-23 12 -27 20 -23 45 2 17 9 31 15 31 6 0 7 3 3 7 -4 4 -27 6 -52 4 -37 -2
-50 2 -70 22 -16 16 -45 29 -86 37 -173 34 -220 50 -290 96 -38 25 -71 44 -74
42 -4 -5 88 -70 142 -99 27 -15 132 -46 219 -64 17 -3 39 -15 50 -25 40 -39
91 -77 145 -109 30 -18 80 -57 110 -85 30 -29 78 -67 107 -84 45 -27 100 -67
364 -265 35 -26 89 -68 119 -93 55 -46 132 -86 225 -119 39 -13 69 -37 140
-109 50 -51 113 -111 140 -133 78 -63 155 -213 110 -213 -8 0 -18 -7 -21 -15
-4 -8 -13 -15 -21 -15 -12 0 -14 -8 -10 -40 3 -27 1 -43 -9 -51 -8 -6 -14 -20
-14 -30 0 -12 -7 -19 -20 -19 -11 0 -26 -12 -34 -28 -8 -15 -27 -40 -41 -55
-15 -15 -25 -33 -23 -39 3 -7 -8 -23 -24 -36 -35 -30 -35 -38 3 -75 39 -36 33
-52 -32 -85 -59 -30 -101 -26 -106 11 -4 28 8 33 74 30 15 -1 20 3 16 13 -3 8
0 14 7 14 6 0 8 5 4 11 -3 6 -15 8 -26 6 -19 -5 -138 10 -146 18 -3 2 -5 15
-5 29 0 14 -8 34 -18 44 -24 27 -44 101 -30 115 13 13 15 57 3 57 -12 0 -38
-23 -51 -45 -10 -17 -11 -14 -6 18 6 35 4 37 -20 37 -16 0 -25 6 -25 15 0 8
-6 15 -14 15 -8 0 -16 7 -20 15 -3 8 -17 15 -31 15 -14 0 -25 4 -25 8 0 9
-109 86 -163 115 -24 13 -32 24 -32 45 0 24 -4 27 -35 28 -53 1 -60 3 -60 15
0 6 7 9 15 6 22 -9 30 13 11 31 -11 11 -34 17 -69 17 -67 0 -74 22 -17 49 51
24 52 40 3 32 -53 -10 -183 -14 -183 -7 0 3 15 16 33 29 26 18 28 22 11 22
-11 0 -24 -4 -30 -10 -5 -5 -22 -6 -37 -2 l-28 7 20 26 20 26 -44 -5 c-57 -6
-60 12 -10 63 22 21 30 35 21 35 -8 0 -21 -6 -28 -13 -14 -14 -53 -37 -62 -37
-3 0 -6 9 -6 20 0 26 -13 25 -58 -5 -64 -44 -82 -31 -30 22 25 26 28 33 14 33
-14 0 -16 5 -11 30 8 37 -10 40 -51 8 -28 -22 -60 -25 -79 -7 -5 5 -24 9 -43
9 -35 0 -84 40 -97 79 -6 21 -134 120 -194 150 -23 12 -41 28 -41 36 0 24
-216 80 -271 71 -19 -3 -65 -8 -102 -11 -94 -6 -112 -18 -56 -37 31 -10 71
-13 138 -10 82 4 93 3 88 -11 -6 -17 11 -27 48 -27 14 0 48 -8 77 -19 29 -10
73 -24 97 -32 25 -7 57 -24 72 -36 15 -13 31 -23 37 -23 5 0 12 -7 16 -15 8
-21 -10 -19 -62 6 -34 17 -46 19 -52 9 -6 -9 -16 -10 -41 -2 -19 5 -59 10 -90
11 -32 0 -61 1 -65 2 -5 1 -20 -2 -34 -8 -14 -6 -49 -14 -77 -18 -29 -4 -55
-10 -57 -13 -5 -9 133 -5 199 6 69 10 176 -9 225 -42 22 -14 45 -26 52 -26 7
0 39 -19 70 -43 78 -57 229 -154 308 -198 133 -73 387 -217 431 -245 119 -75
123 -78 303 -236 37 -33 58 -65 92 -137 61 -130 69 -161 56 -210 -6 -24 -6
-43 -1 -47 5 -3 9 8 9 25 0 40 18 49 31 14 20 -52 23 -92 6 -111 -19 -22 -42
-77 -51 -125 -8 -45 8 -50 22 -7 19 53 57 130 64 130 14 0 58 -75 58 -98 0
-13 4 -21 8 -18 12 7 38 -43 45 -86 3 -21 1 -40 -4 -43 -5 -4 -9 -11 -9 -17 0
-6 9 -3 19 6 18 17 20 17 29 -1 6 -10 10 -40 10 -65 0 -26 3 -56 6 -66 4 -11
-2 -29 -13 -44 -20 -25 -24 -83 -6 -83 6 0 17 14 25 32 20 43 38 49 51 16 7
-20 13 -23 21 -15 9 9 15 0 25 -39 14 -56 9 -75 -12 -46 -8 12 -15 14 -20 7
-11 -18 -25 0 -26 33 0 24 -2 27 -8 14 -4 -10 -11 -18 -16 -17 -6 0 -13 -16
-18 -37 -8 -41 -27 -69 -27 -40 0 9 -4 17 -8 17 -13 0 -32 -43 -28 -64 4 -25
24 -32 32 -12 3 9 12 16 20 16 19 0 29 -49 15 -71 -6 -10 -11 -28 -11 -40 0
-21 1 -22 20 -4 20 18 20 17 20 -8 0 -30 -19 -77 -32 -77 -4 0 -8 -25 -8 -56
0 -30 -5 -65 -11 -76 -6 -12 -13 -41 -15 -66 -3 -25 -7 -49 -10 -53 -3 -5 2
-6 10 -3 14 5 14 1 4 -27 -6 -19 -19 -45 -30 -58 -10 -13 -18 -29 -18 -35 0
-6 -11 -23 -25 -38 -21 -24 -26 -26 -47 -15 -21 10 -69 58 -123 120 -8 9 -15
23 -15 30 0 8 -9 22 -20 32 -10 9 -27 37 -36 61 -9 24 -20 44 -24 44 -4 0 -13
18 -20 40 -7 22 -19 45 -27 51 -17 15 -17 47 1 80 13 25 12 28 -15 48 -22 17
-29 30 -29 56 0 19 -4 35 -10 35 -5 0 -10 11 -10 24 0 14 -5 28 -10 31 -6 4
-8 10 -5 15 4 6 -49 79 -113 155 -9 11 -41 52 -71 90 -30 39 -60 74 -68 78
-22 13 -15 27 15 27 28 0 96 21 108 33 4 4 18 7 30 7 13 0 25 4 28 9 3 4 32
16 64 25 65 18 112 54 112 86 0 11 4 20 10 20 5 0 7 7 4 15 -6 15 -44 21 -44
7 0 -16 -57 -72 -74 -72 -15 0 -63 -24 -170 -82 -51 -28 -95 -38 -123 -27 -21
8 -23 12 -13 24 10 12 9 15 -4 15 -9 0 -16 -4 -16 -10 0 -5 -4 -10 -10 -10 -5
0 -10 7 -10 16 0 9 -10 30 -22 47 -31 44 -31 151 0 220 21 46 18 59 -6 35 -7
-7 -12 -22 -12 -34 0 -13 -4 -25 -9 -28 -5 -4 -12 -29 -16 -56 -4 -27 -11 -53
-16 -56 -6 -3 -21 6 -34 20 -22 24 -23 30 -15 83 12 73 12 86 1 78 -14 -8 -25
15 -13 27 11 11 -6 77 -24 93 -7 6 -15 31 -18 56 -10 67 -57 159 -104 201
-111 101 -219 148 -352 155 -83 4 -121 15 -148 41 -7 6 -20 12 -27 12 -8 0
-18 16 -24 35 -5 19 -19 48 -31 65 -12 16 -18 35 -15 40 4 6 3 9 -2 8 -4 -1
-35 25 -68 58 -77 77 -140 103 -288 117 -113 11 -156 4 -257 -41 -19 -8 -48
-17 -64 -19 -17 -2 -32 -7 -35 -11 -12 -18 -61 -23 -67 -8 -6 17 12 56 26 56
18 0 80 45 80 58 0 6 4 12 9 12 19 0 179 141 205 180 33 50 33 57 0 31 -15
-12 -33 -21 -40 -21 -8 0 -14 -6 -14 -14 0 -8 -9 -21 -20 -29 -11 -8 -17 -17
-14 -20 8 -8 -47 -56 -63 -57 -7 0 -13 -6 -13 -14 0 -13 -49 -52 -60 -49 -3 1
-15 -12 -25 -28 -22 -32 -48 -40 -39 -11 3 9 -3 5 -12 -10 -19 -29 -34 -36
-34 -17 0 5 -5 7 -10 4 -6 -4 -8 -15 -5 -26 6 -17 4 -18 -19 -7 -16 6 -30 24
-35 42 -5 18 -10 23 -10 12 -1 -27 -49 -13 -83 24 -15 17 -35 30 -43 30 -8 0
-15 5 -15 10 0 6 -10 10 -23 10 -13 0 -32 13 -47 31 -14 17 -31 37 -38 45 -7
8 -12 26 -10 41 2 20 -2 29 -14 31 -23 4 -24 -31 -3 -72 26 -49 19 -63 -15
-31 -16 16 -30 35 -30 42 0 11 -9 12 -37 7 -35 -7 -37 -6 -24 10 15 17 9 32
-8 22 -5 -4 -8 -20 -6 -36 5 -35 -10 -40 -21 -8 l-7 23 -8 -23 c-5 -12 -13
-22 -19 -22 -7 0 -9 -8 -5 -20 6 -18 3 -20 -21 -14 -15 4 -39 7 -53 8 -23 1
-26 -3 -24 -32 1 -21 -3 -32 -10 -29 -7 2 -30 -5 -51 -15 -39 -20 -39 -20 -55
0 -10 12 -33 22 -60 25 -37 5 -44 3 -48 -14 -6 -22 -19 -24 -37 -6 -23 23 12
75 65 97 31 13 38 34 14 44 -8 3 -15 13 -15 22 0 27 34 75 57 81 13 3 30 20
39 39 19 40 8 80 -37 134 -29 34 -33 31 -29 -17 1 -13 -3 -23 -9 -23 -6 0 -11
8 -11 18 0 10 -6 24 -12 31 -11 10 -9 15 5 26 15 10 17 21 12 52 -11 64 -14
69 -56 93 l-41 23 -30 -32 -29 -31 -23 42 c-18 34 -28 42 -55 46 -24 2 -39 -2
-52 -17 -18 -20 -18 -20 3 -35 15 -11 26 -12 39 -6 28 15 31 12 24 -20 -4 -19
0 -47 11 -75 13 -34 14 -48 5 -59 -9 -10 -9 -20 0 -40 10 -20 10 -29 1 -38
-13 -13 -15 -49 -6 -97 6 -28 10 -31 45 -31 50 0 51 -20 2 -42 -43 -18 -53
-16 -53 14 0 19 -4 20 -46 15 -34 -3 -55 0 -78 14 -33 19 -80 16 -73 -5 2 -6
16 -17 30 -24 15 -7 27 -21 28 -30 0 -9 14 -28 30 -41 26 -20 34 -22 55 -12
23 10 25 9 20 -7 -4 -11 4 -31 18 -51 22 -29 23 -35 10 -48 -14 -15 -10 -38 6
-28 12 7 35 -24 24 -34 -5 -5 -26 -14 -46 -21 -44 -13 -48 -27 -13 -40 21 -8
24 -14 19 -40 -8 -39 12 -47 68 -26 27 11 51 30 66 51 17 27 29 35 51 35 16 0
34 -7 41 -15 7 -9 25 -15 39 -13 32 4 41 -13 15 -26 -11 -6 -31 -18 -45 -27
-14 -9 -50 -27 -80 -40 -30 -12 -73 -40 -96 -61 -35 -32 -48 -37 -70 -32 -16
4 -36 17 -46 30 -10 13 -27 24 -38 24 -26 0 -25 -2 17 -44 22 -22 33 -41 28
-46 -5 -5 -75 -6 -159 -2 l-150 7 -43 43 c-46 46 -49 52 -26 52 12 0 14 9 12
38 -3 33 -8 39 -51 60 -48 23 -62 53 -36 79 8 8 -2 16 -36 29 -48 18 -49 20
-34 73 2 8 -8 18 -26 24 -41 13 -65 36 -82 76 -12 29 -12 35 1 50 9 10 16 21
16 24 0 14 -54 6 -73 -10 -18 -17 -21 -16 -57 5 -22 12 -47 22 -57 22 -28 1
-53 25 -53 51 0 13 10 42 23 64 20 35 28 41 71 48 45 7 51 6 70 -16 25 -30 86
-41 141 -26 53 14 75 36 75 71 0 34 -19 44 -59 30 -31 -11 -86 -2 -86 14 0 13
84 56 205 104 58 23 106 43 107 44 1 0 5 14 9 30 7 29 6 29 -29 23 -19 -3 -67
-20 -107 -37 -82 -36 -112 -32 -142 19 -14 26 -23 30 -85 36 -89 9 -101 12
-114 37 -14 26 9 52 67 74 45 17 67 44 36 44 -22 0 -72 -22 -72 -32 0 -20 -30
-5 -32 15 -2 32 -1 39 7 70 7 26 6 27 -33 27 -73 0 -84 53 -17 83 89 40 110
53 113 70 3 13 -3 17 -23 17 -33 0 -126 -26 -182 -51 -42 -19 -73 -17 -73 5 0
7 9 31 20 54 26 54 25 62 -9 62 -41 0 -55 22 -48 74 4 23 2 47 -2 52 -5 5 -11
45 -13 89 -3 84 -5 88 -66 140 -20 16 -25 17 -33 5 -8 -11 -12 -12 -16 -2 -2
6 -19 12 -38 12 -18 0 -37 6 -42 13 -11 13 -53 141 -53 159 0 6 -10 22 -22 35
-17 18 -19 26 -10 35 16 16 15 28 -3 28 -9 0 -14 8 -13 23 1 12 -9 37 -22 54
l-23 32 18 42 19 41 -33 27 c-18 14 -48 40 -67 58 -18 17 -42 34 -53 38 -12 3
-24 18 -27 33 -4 15 -15 44 -25 64 -26 50 -24 62 16 145 19 40 35 82 35 93 0
11 6 31 14 43 10 16 12 40 6 92 -8 77 -46 215 -59 215 -5 0 -15 13 -23 30 -14
29 -59 80 -117 133 -17 16 -31 35 -31 43 0 8 -37 31 -84 53 -53 25 -86 46 -90
59 -4 11 -20 25 -36 32 -16 6 -36 20 -46 31 -16 18 -33 19 -241 19 l-223 0 0
-525z m4099 -2766 c75 -26 134 -75 195 -164 37 -55 41 -66 44 -135 2 -52 0
-70 -7 -60 -8 12 -13 12 -35 1 -20 -11 -32 -37 -61 -125 -44 -131 -45 -135
-50 -205 -2 -29 -7 -56 -13 -60 -5 -3 -9 -13 -10 -21 0 -8 -8 -35 -17 -60 -35
-92 -44 -150 -33 -217 7 -43 6 -73 0 -91 -20 -53 -22 -79 -7 -92 8 -7 15 -21
15 -32 0 -12 4 -17 13 -12 6 4 9 4 5 -1 -16 -17 -115 -45 -161 -46 -34 0 -61
7 -93 26 -54 32 -88 66 -74 75 6 4 -10 18 -35 31 -25 13 -45 27 -45 31 0 5 -4
8 -10 8 -16 0 -91 80 -85 90 6 9 -48 119 -64 130 -22 17 -38 57 -29 74 5 10 7
28 4 42 -4 13 -3 23 1 22 11 -4 14 13 7 36 -4 12 0 22 10 28 29 16 20 67 -19
104 -19 18 -35 39 -35 48 0 8 -5 18 -11 21 -11 7 -8 26 18 135 13 58 31 103
105 270 43 97 77 129 188 174 34 13 225 -3 289 -25z m-960 -33 c131 -35 291
-198 291 -296 0 -34 -14 -66 -59 -132 -37 -55 -59 -75 -93 -83 -24 -6 -27 -4
-30 21 -2 24 -8 29 -33 30 -45 2 -290 82 -342 111 -35 19 -47 22 -53 13 -13
-21 -42 48 -42 100 0 71 44 148 111 194 80 56 152 68 250 42z m-655 -302 c53
-18 70 -46 60 -99 -5 -30 -1 -36 50 -81 44 -38 56 -55 56 -78 0 -21 12 -40 44
-70 36 -34 43 -47 41 -73 -2 -37 10 -51 73 -82 23 -12 42 -23 42 -26 0 -21
-213 -53 -234 -36 -6 5 -29 14 -52 20 -52 14 -125 62 -177 119 -23 24 -70 73
-105 108 -51 51 -62 67 -57 84 5 16 0 29 -18 48 -13 15 -30 44 -37 65 -6 20
-15 37 -20 37 -4 0 -10 7 -14 15 -4 10 8 21 36 36 36 18 46 19 84 9 24 -7 48
-9 56 -4 7 5 38 12 68 15 30 3 55 7 56 8 0 0 22 -6 48 -15z m2210 -39 c101
-31 237 -141 269 -217 23 -55 34 -146 33 -273 -1 -114 -3 -123 -31 -174 -38
-70 -121 -154 -182 -185 -26 -13 -57 -33 -67 -45 -21 -23 -39 -118 -24 -127 4
-3 8 -14 8 -25 0 -10 6 -19 14 -19 21 0 28 -29 14 -66 -11 -30 -10 -36 8 -49
13 -11 14 -14 4 -13 -11 2 -16 -8 -18 -33 l-3 -36 -42 8 c-23 4 -51 11 -62 14
-51 18 -153 59 -179 72 -45 23 -122 100 -153 152 -14 25 -33 52 -40 59 -18 18
-17 27 2 12 15 -12 15 9 0 127 -4 36 13 57 35 43 18 -12 40 -13 25 -2 -29 21
-35 39 -24 71 8 24 8 35 -1 47 -12 13 -8 14 31 8 24 -4 51 -13 60 -20 24 -21
31 -17 14 10 -9 13 -15 28 -13 32 1 5 -4 20 -11 34 -13 23 -11 23 20 -6 60
-54 106 -76 172 -81 47 -3 71 0 97 14 47 24 94 106 117 201 l17 75 -59 54
c-75 68 -134 108 -194 129 -100 36 -151 58 -151 66 0 4 -4 8 -9 8 -10 0 -31
-77 -31 -117 0 -15 -4 -34 -8 -41 -5 -7 -9 18 -10 59 -4 136 50 222 155 249
48 12 153 5 217 -15z m-1602 -110 l126 -40 -5 -30 c-9 -58 -9 -58 -71 -50 -75
9 -140 38 -178 79 -16 18 -37 37 -45 42 -17 10 -59 63 -59 74 0 4 24 -2 53
-14 29 -11 109 -39 179 -61z m3238 -1 c0 -8 7 -17 15 -20 8 -3 17 -15 21 -26
3 -11 20 -41 38 -65 27 -39 31 -52 29 -105 -3 -114 -43 -101 -43 14 0 37 -5
70 -10 73 -6 4 -8 10 -5 15 3 4 2 15 -1 24 -9 23 -57 20 -72 -4 -7 -12 -16
-19 -21 -16 -12 8 6 118 20 127 16 10 29 2 29 -17z m-1851 -98 c107 -40 169
-78 230 -140 l44 -45 -12 -58 c-19 -84 -49 -150 -83 -178 -23 -20 -41 -25 -83
-25 -74 0 -96 11 -165 78 -58 56 -60 60 -60 108 0 28 7 101 15 163 8 62 12
117 9 122 -9 15 9 11 105 -25z m-1171 -115 c14 -8 23 -57 15 -78 -13 -34 -167
2 -185 43 -8 18 -14 21 -19 12 -4 -7 -11 -9 -15 -5 -4 3 -1 13 6 22 9 11 33
15 99 15 47 0 92 -4 99 -9z m-466 -248 c-2 -18 4 -24 30 -31 41 -10 53 -50 18
-59 -15 -4 -20 -11 -17 -25 9 -34 -33 -43 -76 -18 -20 12 -37 28 -37 36 0 7
-13 20 -30 29 -16 9 -30 22 -30 29 0 7 -10 21 -22 29 -36 25 -5 38 87 35 76
-3 80 -4 77 -25z m3435 -88 c-15 -11 -14 -14 6 -33 42 -41 56 -61 45 -64 -12
-4 -40 -80 -32 -88 3 -3 14 5 24 18 16 20 22 21 39 10 26 -16 26 -25 1 -33
-15 -5 -19 -12 -14 -30 3 -14 0 -26 -8 -31 -7 -4 -10 -4 -6 1 9 9 -9 35 -23
35 -5 0 -9 -6 -9 -13 0 -7 -9 -18 -20 -25 -16 -10 -24 -10 -40 0 -22 14 -25
30 -10 59 8 15 7 19 -4 19 -8 0 -27 11 -42 23 -21 19 -27 31 -24 58 1 19 2 46
3 62 0 15 5 27 13 27 7 0 19 3 28 6 10 4 16 1 16 -10 0 -10 6 -13 15 -10 8 4
15 11 15 16 0 17 34 39 39 26 2 -6 -4 -17 -12 -23z m-1112 -276 c84 -42 225
-202 225 -255 0 -6 7 -17 15 -24 9 -7 12 -22 9 -40 -4 -15 -1 -31 5 -34 6 -4
11 -20 11 -36 0 -16 5 -41 11 -57 14 -35 14 -82 0 -96 -6 -6 -11 -19 -11 -29
0 -10 -6 -21 -14 -24 -8 -3 -12 -12 -10 -19 6 -14 -61 -40 -131 -51 -43 -6
-157 16 -203 40 -49 25 -151 107 -174 138 l-21 31 47 -28 c39 -23 55 -27 97
-23 29 3 62 14 77 26 22 16 27 27 25 61 -2 54 -40 122 -73 132 -14 4 -56 16
-95 28 -43 12 -84 32 -105 51 -21 19 -26 27 -13 20 30 -14 30 -14 37 21 6 33
130 163 170 179 36 15 77 11 121 -11z m-350 -215 c49 -35 108 -62 179 -80 64
-16 67 -18 86 -62 36 -81 23 -111 -53 -119 -50 -6 -106 18 -148 64 -32 34
-119 193 -119 217 0 19 6 17 55 -20z m-612 -384 c14 -11 29 -20 35 -20 5 0 29
-21 54 -47 25 -27 62 -59 82 -73 19 -14 38 -33 42 -43 3 -10 8 -16 11 -13 9 9
29 -17 41 -53 13 -36 16 -130 4 -98 -7 16 -9 16 -25 -3 -9 -11 -28 -20 -42
-20 -23 0 -89 26 -110 43 -5 5 -28 18 -50 30 -22 12 -53 41 -70 64 -17 23 -42
44 -56 48 -22 5 -28 14 -36 54 -13 66 2 108 47 132 43 23 42 23 73 -1z"/>
<path d="M3761 2579 c-38 -66 -81 -197 -81 -247 0 -20 4 -53 10 -72 6 -22 6
-38 0 -44 -15 -15 -21 -2 -22 44 0 29 -3 38 -9 29 -7 -10 -8 -6 -5 11 13 66
15 116 6 130 -17 25 -32 -8 -26 -57 3 -23 1 -45 -4 -48 -6 -3 -10 -19 -10 -34
0 -20 -6 -30 -20 -34 -37 -10 -23 -132 16 -147 14 -6 22 -15 18 -23 -3 -9 4
-17 18 -21 36 -9 38 -8 38 29 0 39 2 41 33 20 21 -13 22 -13 23 13 1 15 -1 21
-3 15 -8 -22 -25 -14 -18 7 7 21 -10 28 -18 8 -3 -7 -6 -1 -6 15 -1 15 1 27 4
27 3 0 25 -18 48 -41 59 -57 98 -72 178 -66 148 10 259 120 285 285 5 35 3 40
-45 86 -64 59 -255 154 -329 163 l-50 6 -31 -54z m130 18 c79 -24 219 -100
260 -140 44 -45 47 -65 21 -134 -45 -118 -101 -170 -210 -198 l-64 -17 -40 29
c-31 21 -37 29 -24 31 19 4 19 5 -46 70 -14 15 -28 38 -30 52 -2 15 -9 24 -17
22 -29 -6 1 170 45 261 20 42 35 45 105 24z"/>
<path d="M2266 6008 c27 -45 132 -162 171 -191 27 -19 104 -63 173 -97 101
-51 138 -76 191 -130 89 -88 145 -177 160 -251 17 -88 53 -135 150 -201 93
-63 293 -257 321 -312 l18 -35 -114 -55 c-129 -61 -186 -100 -186 -127 0 -27
50 -33 215 -26 117 5 150 9 188 27 52 25 138 111 164 165 l18 37 -33 28 -33
27 103 66 c109 69 159 115 202 184 36 59 73 91 126 108 81 26 411 76 605 91
105 8 235 22 290 30 318 47 837 68 1140 45 88 -6 221 -16 295 -22 74 -6 196
-23 270 -39 74 -15 171 -33 215 -40 44 -7 92 -18 107 -26 34 -17 290 -19 423
-3 119 14 250 58 360 119 85 47 252 131 357 178 26 12 79 42 117 67 85 54 173
99 334 169 67 30 167 75 222 101 55 26 119 56 143 66 23 10 42 23 42 28 0 11
-33 -2 -185 -74 -55 -26 -160 -74 -233 -106 -173 -77 -214 -98 -351 -180 -62
-38 -117 -69 -122 -69 -14 0 -203 -93 -324 -160 -185 -101 -326 -133 -591
-132 -109 0 -165 4 -200 15 -27 9 -69 19 -94 22 -25 4 -109 20 -188 36 -261
53 -614 74 -1081 66 -331 -6 -429 -13 -691 -51 -58 -8 -172 -20 -255 -26 -82
-6 -249 -26 -370 -46 -267 -42 -306 -57 -363 -142 -20 -31 -57 -76 -82 -101
-54 -54 -253 -180 -325 -206 -27 -10 -54 -22 -60 -26 -19 -18 -43 -8 -56 24
-16 40 -233 255 -308 304 -108 72 -129 97 -157 192 -53 178 -171 305 -385 415
-162 84 -182 99 -262 199 -34 42 -65 77 -70 77 -4 0 -5 -6 -1 -12z m1429
-1182 c19 -14 19 -15 2 -50 -25 -54 -92 -122 -144 -147 -40 -19 -68 -23 -199
-27 -84 -3 -160 -2 -170 2 -41 16 45 68 291 177 134 59 187 70 220 45z"/>
<path d="M5584 5078 c-75 -118 -100 -151 -114 -154 -45 -9 -170 -58 -202 -80
-34 -24 -45 -26 -162 -27 -95 -2 -126 1 -126 11 0 6 -4 12 -10 12 -5 0 -10 8
-10 18 0 14 -2 15 -10 2 -8 -12 -10 -12 -16 3 -8 21 -24 23 -24 3 0 -26 -44
-65 -79 -70 -19 -3 -47 -14 -62 -25 -19 -14 -43 -21 -73 -21 -25 0 -57 -5 -73
-11 -20 -8 -38 -7 -64 1 -33 11 -41 22 -83 112 -50 107 -72 126 -37 33 38
-100 24 -185 -36 -224 -21 -14 -60 -42 -88 -62 -27 -21 -63 -41 -80 -45 -16
-4 -46 -15 -66 -25 -65 -32 -212 -53 -350 -48 -9 0 -45 -9 -80 -21 -36 -11
-117 -25 -186 -31 -135 -11 -134 -11 -258 61 -72 42 -115 39 -129 -8 -11 -34
31 -107 101 -176 35 -34 63 -68 63 -78 0 -9 -20 -28 -45 -42 -66 -39 -84 -81
-40 -92 28 -7 31 -14 13 -33 -11 -10 -9 -15 7 -27 11 -8 31 -17 45 -20 14 -2
47 -9 73 -15 46 -11 52 -9 135 31 48 23 107 45 132 50 79 14 198 49 308 91 73
28 138 45 209 54 118 16 135 25 191 110 20 31 46 58 58 61 11 3 28 18 37 34
22 37 57 47 187 55 109 7 149 14 238 39 52 15 55 15 103 -9 52 -27 210 -80
266 -91 19 -4 67 -28 107 -54 40 -26 84 -51 97 -55 59 -19 193 -100 208 -126
12 -22 28 -31 64 -39 26 -5 53 -10 60 -10 6 0 45 -26 87 -58 41 -33 91 -67
110 -77 117 -60 264 -158 328 -219 129 -122 274 -341 337 -510 14 -37 43 -89
64 -115 35 -41 101 -149 101 -163 0 -4 -29 -27 -65 -53 -57 -40 -79 -65 -59
-65 3 0 35 20 71 45 35 25 65 45 67 45 9 0 76 -162 76 -182 0 -16 -3 -19 -9
-10 -6 11 -10 11 -18 0 -26 -32 -44 -82 -39 -104 4 -13 3 -24 -1 -24 -23 0
-38 -50 -38 -123 0 -76 -1 -79 -30 -95 -16 -9 -33 -20 -36 -25 -13 -18 -153
248 -147 281 2 10 14 18 31 20 15 2 27 9 27 16 0 18 -40 52 -82 69 -30 13 -39
23 -49 59 -7 24 -24 59 -39 78 -14 19 -32 53 -39 74 -8 22 -22 49 -32 60 -11
11 -19 25 -19 31 0 7 -10 20 -21 31 -12 10 -25 29 -30 41 -5 13 -20 24 -39 28
-27 6 -31 10 -26 30 5 19 -1 27 -27 44 -18 11 -40 32 -47 46 -19 36 -43 47
-75 35 -37 -14 -45 -13 -45 8 0 26 -115 129 -159 143 -48 16 -141 78 -149 100
-4 10 -23 28 -42 41 -23 16 -36 33 -38 51 -3 21 -9 27 -27 27 -13 0 -35 5 -48
11 -45 20 -52 50 -52 210 0 82 -3 149 -6 149 -11 0 -19 -72 -19 -171 0 -88 -2
-98 -24 -122 l-24 -26 -94 49 c-123 65 -166 82 -173 70 -3 -5 29 -25 70 -44
88 -41 120 -64 221 -163 54 -52 74 -78 74 -97 0 -51 30 -92 96 -130 35 -20 91
-61 125 -91 34 -31 97 -76 140 -102 69 -41 161 -119 291 -245 21 -21 45 -38
53 -38 22 0 72 -48 84 -81 10 -29 8 -33 -59 -100 -64 -64 -99 -109 -85 -109
19 0 57 29 107 83 63 68 69 68 88 -8 21 -81 35 -120 46 -130 44 -37 256 -370
320 -504 30 -62 35 -82 32 -122 l-5 -47 41 3 c23 2 48 6 57 10 10 3 20 2 24
-4 12 -21 23 -10 29 31 16 97 57 150 337 433 148 149 307 317 355 375 220 263
340 346 619 424 72 20 213 63 315 96 102 33 239 74 305 92 l120 33 3 200 c2
110 0 242 -3 293 l-7 94 -26 -7 c-48 -12 -87 -40 -109 -81 -12 -22 -38 -48
-59 -59 -21 -11 -42 -29 -48 -39 -30 -53 -89 -86 -151 -86 -19 0 -35 -4 -35
-8 0 -20 -61 -29 -156 -21 -54 4 -111 8 -126 9 -15 0 -38 11 -53 26 -14 14
-29 22 -34 19 -6 -3 -13 15 -16 40 -8 51 -22 59 -31 18 -10 -47 -14 -54 -24
-48 -5 3 -10 -2 -10 -12 0 -15 -2 -16 -10 -3 -6 10 -10 11 -10 3 0 -7 -17 -21
-37 -32 -54 -27 -98 -81 -132 -158 -6 -12 -18 -30 -28 -40 -37 -38 -83 -101
-83 -116 0 -8 -7 -20 -15 -27 -8 -7 -15 -16 -15 -21 0 -23 -69 -110 -98 -125
-18 -8 -57 -35 -87 -60 -30 -24 -59 -44 -65 -44 -5 0 -10 -4 -10 -8 0 -5 -16
-27 -35 -49 -27 -32 -46 -44 -87 -53 -66 -15 -87 -33 -80 -65 3 -20 0 -25 -16
-25 -38 0 -46 -25 -31 -88 20 -83 18 -93 -23 -135 -21 -21 -38 -46 -38 -57 0
-10 -18 -35 -40 -56 -31 -29 -41 -48 -46 -83 -6 -44 -57 -134 -89 -161 -8 -7
-15 -23 -15 -36 0 -13 -4 -24 -10 -24 -5 0 -13 -12 -16 -27 -7 -25 -8 -24 -26
23 -10 27 -25 63 -33 81 -17 35 -19 47 -7 40 11 -7 4 239 -9 308 -15 75 -145
337 -204 410 -25 30 -62 97 -89 161 -51 120 -117 227 -226 365 -39 50 -70 92
-68 94 2 1 28 18 58 36 30 18 57 36 60 39 3 3 43 37 90 75 47 39 94 77 105 87
78 64 164 130 226 173 73 51 135 118 169 185 22 44 94 85 223 126 48 15 87 32
87 36 0 4 -3 8 -7 8 -22 0 -192 -63 -231 -85 -24 -14 -46 -25 -47 -25 -2 0 3
21 11 48 27 93 52 222 43 227 -4 3 -11 -4 -13 -17 -51 -236 -87 -335 -146
-401 -36 -41 -273 -207 -295 -207 -8 0 -15 5 -15 11 0 6 -6 9 -12 6 -21 -7
-99 20 -124 44 -34 32 -30 54 13 76 36 17 56 43 34 43 -20 0 -51 34 -51 56 0
33 -65 50 -76 20 -3 -8 -14 -16 -24 -19 -26 -7 -150 20 -170 37 -18 16 -92 35
-180 47 -36 4 -90 16 -120 25 -30 9 -71 16 -90 15 -19 -1 -59 4 -88 10 -42 8
-55 16 -62 35 -6 14 -17 27 -25 30 -8 4 -15 14 -15 23 0 26 -21 41 -56 41 -17
0 -37 7 -44 15 -7 8 -36 26 -66 41 -95 46 -91 84 32 331 45 90 81 163 80 163
-1 0 -20 -28 -42 -62z m1377 -2761 c12 -37 21 -84 21 -105 -1 -90 -5 -103 -38
-129 -19 -14 -38 -22 -45 -17 -8 5 -11 1 -7 -13 4 -15 1 -19 -11 -16 -9 2 -31
38 -50 80 -30 69 -33 83 -29 154 3 70 6 81 33 109 64 68 90 55 126 -63z"/>
<path d="M2203 3416 c-18 -5 -33 -16 -33 -23 0 -7 -8 -14 -17 -14 -10 -1 -22
-2 -28 -4 -5 -1 -20 -3 -33 -3 -12 -1 -39 -18 -60 -37 l-37 -36 68 5 c68 4 77
0 55 -23 -18 -18 19 -44 52 -37 14 2 32 1 40 -4 12 -7 11 -12 -4 -29 -17 -19
-17 -21 -2 -27 9 -3 30 -4 47 0 20 4 45 -1 72 -13 45 -20 92 -18 101 4 3 8 -2
19 -10 26 -12 9 -20 9 -40 -2 -23 -12 -27 -11 -35 4 -6 10 -19 26 -31 36 -20
19 -18 41 5 41 18 0 80 19 96 29 12 8 12 12 2 25 -8 9 -22 16 -32 16 -9 0 -25
7 -34 17 -16 15 -19 15 -46 -1 -36 -21 -50 -14 -46 26 2 35 -5 39 -50 24z"/>
</g>
</svg>
